<svg xmlns="http://www.w3.org/2000/svg" viewBox="0 0 1200 700"><defs><linearGradient id="wall" x2="1" y2="1"><stop stop-color="#6d1d4a"/><stop offset="1" stop-color="#a52a69"/></linearGradient></defs><rect width="1200" height="700" fill="#1a1d22"/><rect x="70" y="65" width="1060" height="570" rx="18" fill="#111" stroke="#343a41" stroke-width="8"/><rect x="95" y="92" width="1010" height="515" fill="url(#wall)"/><circle cx="600" cy="350" r="120" fill="#d03a73" opacity=".38"/><path d="M543 367c18-80 93-92 123-24-46-13-71 14-84 65z" fill="#f4f5f7" opacity=".92"/><rect x="95" y="92" width="1010" height="42" fill="#e9e9e9"/><text x="118" y="120" font-family="Arial" font-size="17" font-weight="700" fill="#333">Menu</text><text x="1012" y="120" font-family="Arial" font-size="16" fill="#333">Wi-Fi  ▮▮▮   21:48</text><rect x="165" y="190" width="92" height="84" rx="9" fill="#ffffff22"/><text x="211" y="287" text-anchor="middle" font-family="Arial" font-size="15" fill="#fff">File Manager</text><rect x="165" y="322" width="92" height="84" rx="9" fill="#ffffff22"/><text x="211" y="419" text-anchor="middle" font-family="Arial" font-size="15" fill="#fff">Terminal</text><rect x="670" y="470" width="340" height="82" rx="12" fill="#fff"/><text x="695" y="503" font-family="Arial" font-size="19" font-weight="700" fill="#333">Raspberry Pi OS is ready</text><text x="695" y="530" font-family="Arial" font-size="16" fill="#66717d">Desktop visible · Wi-Fi connected</text><text x="600" y="665" text-anchor="middle" font-family="Arial" font-size="22" font-weight="700" fill="#e7e7e7">Step 7 · This is the checkpoint you want before moving on.</text></svg>